HIERARCHY
ROOT Hips
{
	OFFSET 0.00 0.00 0.00
	CHANNELS 6 Xposition Yposition Zposition Xrotation Yrotation Zrotation
	JOINT Spine
	{
		OFFSET 0.00000 7.53995 0.00000
		CHANNELS 3 Xrotation Yrotation Zrotation
		JOINT Head
		{
			OFFSET 0.00000 15.09381 0.00000
			CHANNELS 3 Xrotation Yrotation Zrotation
			End Site
			{
				OFFSET 0.00000 4.52755 0.00000
			}
		}
		JOINT LeftShoulder
		{
			OFFSET 0.00000 9.73893 0.00000
			CHANNELS 3 Xrotation Yrotation Zrotation
			JOINT LeftArm
			{
				OFFSET 7.08401 0.00000 0.00000
				CHANNELS 3 Xrotation Yrotation Zrotation
				JOINT LeftForeArm
				{
					OFFSET 10.25932 0.00000 0.00000
					CHANNELS 3 Yrotation Zrotation Xrotation
					JOINT LeftHand
					{
						OFFSET 9.89698 0.00000 0.00000
						CHANNELS 3 Xrotation Yrotation Zrotation
						JOINT LeftHandThumb1
						{
							OFFSET 0.00000 0.00000 0.00000
							CHANNELS 3 Xrotation Zrotation Yrotation
							End Site
							{
								OFFSET 0.00000 0.00000 3.93700
							}
						}
						End Site
						{
							OFFSET 3.93700 0.00000 0.00000
						}
					}
				}
			}
		}
		JOINT RightShoulder
		{
			OFFSET 0.00000 9.73893 0.00000
			CHANNELS 3 Xrotation Yrotation Zrotation
			JOINT RightArm
			{
				OFFSET -7.08401 0.00000 0.00000
				CHANNELS 3 Xrotation Yrotation Zrotation
				JOINT RightForeArm
				{
					OFFSET -10.25932 0.00000 0.00000
					CHANNELS 3 Yrotation Zrotation Xrotation
					JOINT RightHand
					{
						OFFSET -9.89698 0.00000 0.00000
						CHANNELS 3 Xrotation Yrotation Zrotation
						JOINT RightHandThumb1
						{
							OFFSET 0.00000 0.00000 0.00000
							CHANNELS 3 Xrotation Zrotation Yrotation
							End Site
							{
								OFFSET 0.00000 0.00000 3.93700
							}
						}
						End Site
						{
							OFFSET -3.93700 0.00000 0.00000
						}
					}
				}
			}
		}
	}
	JOINT LeftUpLeg
	{
		OFFSET 3.34548 0.00000 0.00000
		CHANNELS 3 Xrotation Yrotation Zrotation
		JOINT LeftLeg
		{
			OFFSET 0.00000 -19.11473 0.00000
			CHANNELS 3 Xrotation Yrotation Zrotation
			JOINT LeftFoot
			{
				OFFSET 0.00000 -16.04560 0.00000
				CHANNELS 3 Xrotation Yrotation Zrotation
				JOINT LeftToeBase
				{
					OFFSET 0.00000 -1.43467 5.35428
					CHANNELS 3 Xrotation Yrotation Zrotation
					End Site
					{
						OFFSET 0.00000 0.00000 2.95275
					}
				}
			}
		}
	}
	JOINT RightUpLeg
	{
		OFFSET -3.34548 0.00000 0.00000
		CHANNELS 3 Xrotation Yrotation Zrotation
		JOINT RightLeg
		{
			OFFSET 0.00000 -19.11473 0.00000
			CHANNELS 3 Xrotation Yrotation Zrotation
			JOINT RightFoot
			{
				OFFSET 0.00000 -16.04560 0.00000
				CHANNELS 3 Xrotation Yrotation Zrotation
				JOINT RightToeBase
				{
					OFFSET 0.00000 -1.43467 5.35428
					CHANNELS 3 Xrotation Yrotation Zrotation
					End Site
					{
						OFFSET 0.00000 0.00000 2.95275
					}
				}
			}
		}
	}
}
MOTION
Frames: 22
Frame Time: 0.008333
 -0.7084 36.8827 3.9433 6.7725 -7.3904 -0.3464 -7.7768 -0.2966 -0.4501 -6.1409 -33.6527 -0.9236 -0.9033 0.5006 0.6326 16.0381 -37.8126 -65.6700 -24.2733 -0.0000 17.6320 2.2328 7.6182 -16.3887 33.1476 -0.0000 26.2537 -0.9235 -5.5243 -14.3400 -79.5434 -24.9521 17.6872 97.8187 0.0000 88.6244 -2.1871 -11.5277 -10.8192 32.8623 0.0000 -24.3270 -4.3362 17.9311 6.2630 8.1435 0.0000 0.0000 -13.5083 18.3206 -20.4418 12.5308 -0.0000 0.0000 -8.1360 -3.9906 -2.7089 10.5279 -0.0000 -0.0000 -11.2096 -11.0477 16.1722 8.5466 -0.0000 -0.0000
 -0.7099 36.8830 3.9430 6.7697 -7.3783 -0.3463 -7.7760 -0.2896 -0.4619 -6.1429 -33.6437 -0.8780 -0.9019 0.5144 0.6236 16.0396 -37.8438 -65.6664 -24.3772 -0.0000 17.6264 2.2387 7.6447 -16.3759 33.1476 -0.0000 26.2537 -0.9313 -5.5191 -14.3398 -79.5182 -24.9222 17.6607 97.8440 0.0000 88.5857 -2.1985 -11.5162 -10.8846 32.8623 0.0000 -24.3270 -4.3282 17.9052 6.2618 8.1335 -0.0000 -0.0000 -13.4874 18.3456 -20.4819 12.4958 -0.0000 0.0000 -8.1299 -3.9786 -2.7064 10.5297 -0.0000 -0.0000 -11.1967 -11.0402 16.0951 8.3950 -0.0000 0.0000
 -0.7105 36.8829 3.9421 6.7628 -7.3717 -0.3455 -7.7662 -0.2828 -0.4709 -6.1756 -33.6305 -0.8629 -0.8784 0.5213 0.6161 16.0049 -37.8684 -65.6832 -24.4663 -0.0000 17.6046 2.2252 7.6112 -16.3497 33.1476 -0.0000 26.2537 -0.9204 -5.5107 -14.3445 -79.5085 -24.9016 17.6414 97.8835 0.0000 88.6144 -2.1984 -11.5297 -10.8718 32.8623 0.0000 -24.3270 -4.3320 17.9145 6.2636 8.1469 -0.0000 0.0000 -13.5040 18.3151 -20.4368 12.4891 0.0000 -0.0000 -8.1321 -3.9869 -2.7055 10.5534 0.0000 0.0000 -11.2488 -11.0416 15.9936 8.5465 0.0000 -0.0000
 -0.7118 36.8825 3.9423 6.7582 -7.3624 -0.3475 -7.7649 -0.2727 -0.4800 -6.1945 -33.6292 -0.8360 -0.8618 0.5199 0.6411 15.8671 -37.8309 -65.8101 -24.4688 -0.0000 17.6360 2.2213 7.5580 -16.4310 33.1476 -0.0000 26.2537 -0.9051 -5.5070 -14.3403 -79.4983 -24.8684 17.6116 97.9098 0.0000 88.5358 -2.2132 -11.5047 -10.9662 32.8623 0.0000 -24.3270 -4.3250 17.8946 6.2656 8.1449 0.0000 0.0000 -13.4884 18.3303 -20.4824 12.4499 -0.0000 0.0000 -8.1251 -3.9867 -2.7054 10.5477 -0.0000 -0.0000 -11.2082 -11.0388 16.0953 8.4100 0.0000 -0.0000
 -0.7131 36.8823 3.9416 6.7558 -7.3582 -0.3481 -7.7602 -0.2636 -0.4858 -6.2373 -33.6096 -0.8345 -0.8593 0.5235 0.6365 15.8564 -37.8395 -65.8321 -24.5812 -0.0000 17.6160 2.2536 7.6600 -16.4482 33.1476 -0.0000 26.2537 -0.9047 -5.5029 -14.3432 -79.4614 -24.8337 17.6020 97.9922 0.0000 88.7154 -2.1689 -11.6214 -10.6477 32.8623 0.0000 -24.3270 -4.3291 17.8951 6.2679 8.1517 -0.0000 -0.0000 -13.4911 18.3240 -20.4504 12.4498 0.0000 0.0000 -8.1247 -3.9840 -2.7037 10.5527 -0.0000 -0.0000 -11.2192 -11.0546 16.1330 8.4752 0.0000 0.0000
 -0.7147 36.8823 3.9409 6.7520 -7.3424 -0.3506 -7.7527 -0.2572 -0.4957 -6.2795 -33.6018 -0.8141 -0.8704 0.5204 0.6396 15.8583 -37.8646 -65.8542 -24.6858 -0.0000 17.6344 2.2367 7.6158 -16.4210 33.1476 -0.0000 26.2537 -0.9076 -5.5007 -14.3396 -79.4274 -24.8252 17.5930 98.0444 0.0000 88.5996 -2.1845 -11.5071 -10.8251 32.8623 0.0000 -24.3270 -4.3329 17.8800 6.2729 8.1608 0.0000 0.0000 -13.4919 18.3263 -20.4527 12.4635 -0.0000 0.0000 -8.1256 -3.9867 -2.6974 10.5717 0.0000 0.0000 -11.2578 -11.0530 16.0545 8.4869 -0.0000 -0.0000
 -0.7157 36.8823 3.9400 6.7475 -7.3285 -0.3535 -7.7489 -0.2488 -0.5046 -6.2995 -33.5911 -0.7918 -0.8589 0.5060 0.6384 15.8404 -37.8965 -65.8739 -24.7702 -0.0000 17.6226 2.2050 7.4971 -16.4414 33.1476 -0.0000 26.2537 -0.8977 -5.4983 -14.3287 -79.4120 -24.7865 17.5718 98.0797 0.0000 88.5100 -2.2107 -11.4885 -10.9691 32.8623 0.0000 -24.3270 -4.3270 17.8505 6.2744 8.1552 -0.0000 -0.0000 -13.4896 18.3416 -20.4699 12.4704 -0.0000 -0.0000 -8.1271 -3.9945 -2.6988 10.5748 0.0000 0.0000 -11.2489 -11.0845 16.1861 8.5527 -0.0000 -0.0000
 -0.7167 36.8820 3.9395 6.7453 -7.3235 -0.3540 -7.7473 -0.2424 -0.5090 -6.3267 -33.5879 -0.7792 -0.8614 0.5069 0.6374 15.8379 -37.9134 -65.8906 -24.8595 -0.0000 17.6220 2.2017 7.4543 -16.5067 33.1476 -0.0000 26.2537 -0.8805 -5.4955 -14.3304 -79.4054 -24.7718 17.5734 98.1509 0.0000 88.5801 -2.1983 -11.5141 -10.8855 32.8623 0.0000 -24.3270 -4.3283 17.8486 6.2769 8.1573 0.0000 -0.0000 -13.4869 18.3339 -20.4646 12.4455 0.0000 -0.0000 -8.1242 -3.9870 -2.6964 10.5854 0.0000 -0.0000 -11.2769 -11.0692 15.9935 8.5608 0.0000 0.0000
 -0.7187 36.8818 3.9384 6.7380 -7.3161 -0.3553 -7.7343 -0.2305 -0.5229 -6.3542 -33.5828 -0.7585 -0.8490 0.5022 0.6386 15.8276 -37.9365 -65.9026 -24.9572 -0.0000 17.5919 2.1979 7.4816 -16.4233 33.1476 -0.0000 26.2537 -0.8766 -5.4918 -14.3208 -79.3908 -24.7574 17.5646 98.2296 0.0000 88.6283 -2.1715 -11.5684 -10.7071 32.8623 0.0000 -24.3270 -4.3284 17.8469 6.2821 8.1670 0.0000 0.0000 -13.4935 18.3389 -20.4925 12.4867 -0.0000 0.0000 -8.1185 -3.9716 -2.6924 10.5879 0.0000 0.0000 -11.2427 -11.0946 16.0944 8.4423 0.0000 0.0000
 -0.7203 36.8819 3.9378 6.7328 -7.3036 -0.3586 -7.7255 -0.2225 -0.5326 -6.3833 -33.5845 -0.7366 -0.8403 0.4931 0.6389 15.8242 -37.9670 -65.9141 -25.0561 -0.0000 17.5249 2.1960 7.4533 -16.4685 33.1476 -0.0000 26.2537 -0.8755 -5.4921 -14.3138 -79.3908 -24.7437 17.5480 98.2514 0.0000 88.4429 -2.2089 -11.3931 -11.0487 32.8623 0.0000 -24.3270 -4.3312 17.8409 6.2875 8.1747 0.0000 -0.0000 -13.4908 18.3310 -20.4919 12.4821 -0.0000 -0.0000 -8.1137 -3.9814 -2.6894 10.5902 0.0000 0.0000 -11.2455 -11.0968 16.1032 8.4337 0.0000 -0.0000
 -0.7223 36.8817 3.9371 6.7274 -7.2954 -0.3610 -7.7180 -0.2170 -0.5419 -6.4110 -33.5711 -0.7234 -0.8453 0.4846 0.6491 15.8110 -38.0207 -65.9544 -25.1326 -0.0000 17.5024 2.2258 7.6068 -16.3628 33.1476 -0.0000 26.2537 -0.8603 -5.4936 -14.3104 -79.3936 -24.7440 17.5483 98.3341 0.0000 88.4949 -2.1966 -11.3990 -10.9830 32.8623 0.0000 -24.3270 -4.3226 17.8256 6.2905 8.1607 -0.0000 0.0000 -13.4823 18.3376 -20.4956 12.4846 0.0000 0.0000 -8.1097 -3.9729 -2.6827 10.6033 -0.0000 0.0000 -11.2880 -11.1121 15.9839 8.5490 0.0000 0.0000
 -0.7235 36.8817 3.9365 6.7251 -7.2881 -0.3626 -7.7101 -0.2108 -0.5500 -6.4462 -33.5806 -0.7140 -0.8360 0.4880 0.6436 15.8109 -38.0181 -65.9481 -25.2201 -0.0000 17.4882 2.1924 7.4735 -16.4010 33.1476 -0.0000 26.2537 -0.8601 -5.4931 -14.3087 -79.3827 -24.7346 17.5464 98.3993 0.0000 88.4488 -2.2035 -11.3621 -11.0512 32.8623 0.0000 -24.3270 -4.3284 17.8346 6.2959 8.1721 0.0000 0.0000 -13.4877 18.3189 -20.4909 12.4651 -0.0000 0.0000 -8.1066 -3.9789 -2.6813 10.6014 0.0000 0.0000 -11.2888 -11.1184 16.0129 8.5556 -0.0000 0.0000
 -0.7244 36.8818 3.9350 6.7244 -7.2837 -0.3634 -7.7057 -0.2059 -0.5540 -6.4776 -33.5782 -0.7115 -0.8470 0.4869 0.6391 15.8182 -38.0380 -65.9596 -25.2951 -0.0000 17.4668 2.1724 7.4239 -16.3615 33.1476 -0.0000 26.2537 -0.8513 -5.4870 -14.3108 -79.3691 -24.7224 17.5560 98.4732 0.0000 88.3765 -2.2173 -11.4035 -11.0800 32.8623 0.0000 -24.3270 -4.3277 17.8301 6.2983 8.1637 -0.0000 -0.0000 -13.4800 18.3161 -20.4899 12.4788 0.0000 -0.0000 -8.1082 -3.9833 -2.6803 10.5888 0.0000 -0.0000 -11.2625 -11.1433 16.1945 8.5674 -0.0000 0.0000
 -0.7264 36.8819 3.9335 6.7225 -7.2769 -0.3658 -7.6976 -0.2021 -0.5646 -6.4989 -33.5841 -0.6777 -0.8400 0.4803 0.6395 15.8083 -38.0556 -65.9722 -25.3789 -0.0000 17.4419 2.1745 7.4256 -16.3727 33.1476 -0.0000 26.2537 -0.8615 -5.4857 -14.3030 -79.3432 -24.7080 17.5699 98.5408 0.0000 88.2778 -2.2416 -11.3930 -11.2085 32.8623 0.0000 -24.3270 -4.3310 17.8264 6.3039 8.1647 0.0000 -0.0000 -13.4791 18.3234 -20.5241 12.4890 -0.0000 0.0000 -8.1062 -3.9735 -2.6740 10.6017 0.0000 0.0000 -11.2886 -11.1256 15.9676 8.5600 0.0000 -0.0000
 -0.7272 36.8818 3.9323 6.7224 -7.2702 -0.3667 -7.6941 -0.1975 -0.5674 -6.5319 -33.5965 -0.6858 -0.8458 0.4789 0.6384 15.8016 -38.0714 -65.9940 -25.4411 -0.0000 17.4327 2.1897 7.4766 -16.3756 33.1476 -0.0000 26.2537 -0.8494 -5.4820 -14.3038 -79.3476 -24.7056 17.5797 98.6202 0.0000 88.1069 -2.2530 -11.3360 -11.3182 32.8623 0.0000 -24.3270 -4.3320 17.8194 6.3046 8.1609 -0.0000 0.0000 -13.4791 18.3215 -20.4933 12.4800 0.0000 -0.0000 -8.1044 -3.9755 -2.6738 10.5904 -0.0000 -0.0000 -11.2397 -11.1204 16.0849 8.3961 -0.0000 -0.0000
 -0.7291 36.8820 3.9310 6.7205 -7.2622 -0.3686 -7.6859 -0.1952 -0.5767 -6.5574 -33.6145 -0.6735 -0.8536 0.4739 0.6344 15.8052 -38.0887 -65.9977 -25.4993 -0.0000 17.3875 2.1943 7.4398 -16.4846 33.1476 -0.0000 26.2537 -0.8540 -5.4834 -14.3045 -79.3274 -24.7128 17.6091 98.7092 0.0000 88.0491 -2.2410 -11.3361 -11.2597 32.8623 0.0000 -24.3270 -4.3422 17.8308 6.3131 8.1734 0.0000 -0.0000 -13.4805 18.2944 -20.4791 12.5034 0.0000 -0.0000 -8.1000 -3.9660 -2.6657 10.5949 -0.0000 -0.0000 -11.2795 -11.1506 15.9916 8.5253 -0.0000 0.0000
 -0.7305 36.8821 3.9304 6.7198 -7.2475 -0.3697 -7.6820 -0.1910 -0.5823 -6.5866 -33.6486 -0.6889 -0.8708 0.4662 0.6462 15.7819 -38.1334 -66.0510 -25.5267 -0.0000 17.4044 2.2252 7.6070 -16.3587 33.1476 -0.0000 26.2537 -0.8441 -5.4952 -14.3057 -79.3271 -24.7259 17.6423 98.8253 0.0000 88.1183 -2.2206 -11.4044 -11.0952 32.8623 0.0000 -24.3270 -4.3372 17.8118 6.3135 8.1586 0.0000 -0.0000 -13.4681 18.3068 -20.5143 12.5112 0.0000 -0.0000 -8.0912 -4.0058 -2.6681 10.5676 0.0000 -0.0000 -11.2390 -11.1215 16.0903 8.4438 -0.0000 -0.0000
 -0.7322 36.8822 3.9291 6.7185 -7.2439 -0.3712 -7.6788 -0.1876 -0.5894 -6.5921 -33.6563 -0.6782 -0.8653 0.4623 0.6434 15.7714 -38.1432 -66.0609 -25.5743 -0.0000 17.4212 2.2120 7.5873 -16.3060 33.1476 -0.0000 26.2537 -0.8496 -5.4858 -14.2994 -79.3295 -24.7291 17.6649 98.9179 0.0000 88.0303 -2.2173 -11.3758 -11.1057 32.8623 0.0000 -24.3270 -4.3416 17.8185 6.3191 8.1620 0.0000 -0.0000 -13.4621 18.2910 -20.5202 12.4937 0.0000 -0.0000 -8.0878 -3.9949 -2.6633 10.5648 -0.0000 -0.0000 -11.2382 -11.1278 16.0792 8.4283 -0.0000 0.0000
 -0.7331 36.8824 3.9283 6.7192 -7.2392 -0.3725 -7.6768 -0.1840 -0.5941 -6.5939 -33.6501 -0.6579 -0.8575 0.4581 0.6395 15.7517 -38.1478 -66.0773 -25.6145 -0.0000 17.4292 2.2129 7.5978 -16.2915 33.1476 -0.0000 26.2537 -0.8397 -5.4813 -14.2956 -79.3582 -24.7333 17.6739 98.9894 0.0000 87.9268 -2.2432 -11.3405 -11.2659 32.8623 0.0000 -24.3270 -4.3362 17.8158 6.3204 8.1437 0.0000 0.0000 -13.4449 18.2784 -20.5076 12.4302 0.0000 0.0000 -8.0868 -4.0085 -2.6604 10.5663 -0.0000 0.0000 -11.2726 -11.1244 15.9783 8.5526 -0.0000 0.0000
 -0.7346 36.8823 3.9273 6.7185 -7.2378 -0.3735 -7.6734 -0.1770 -0.6001 -6.6068 -33.6525 -0.6647 -0.8721 0.4548 0.6359 15.7598 -38.1685 -66.0824 -25.6388 -0.0000 17.4129 2.1956 7.5219 -16.3242 33.1476 -0.0000 26.2537 -0.8369 -5.4783 -14.2886 -79.3897 -24.7385 17.6931 99.0738 0.0000 87.8689 -2.2543 -11.3299 -11.3304 32.8623 0.0000 -24.3270 -4.3387 17.8238 6.3252 8.1442 -0.0000 -0.0000 -13.4521 18.2727 -20.5285 12.4927 -0.0000 -0.0000 -8.0823 -3.9934 -2.6560 10.5569 -0.0000 -0.0000 -11.2758 -11.1349 15.9440 8.5498 -0.0000 0.0000
 -0.7359 36.8824 3.9262 6.7189 -7.2308 -0.3748 -7.6730 -0.1741 -0.6054 -6.5968 -33.6550 -0.6476 -0.8734 0.4482 0.6301 15.7497 -38.1826 -66.0920 -25.6498 -0.0000 17.3986 2.1748 7.4035 -16.4212 33.1476 -0.0000 26.2537 -0.8112 -5.4754 -14.2805 -79.4299 -24.7529 17.7089 99.2159 0.0000 88.0184 -2.2077 -11.4486 -10.9912 32.8623 0.0000 -24.3270 -4.3351 17.8130 6.3258 8.1301 -0.0000 -0.0000 -13.4394 18.2792 -20.5296 12.4636 -0.0000 0.0000 -8.0810 -4.0195 -2.6557 10.5428 0.0000 -0.0000 -11.2366 -11.1203 16.0782 8.4730 0.0000 0.0000
 -0.7381 36.8828 3.9256 6.7186 -7.2228 -0.3764 -7.6713 -0.1694 -0.6154 -6.5834 -33.6473 -0.6250 -0.8745 0.4398 0.6243 15.7570 -38.2102 -66.0852 -25.6706 -0.0000 17.3826 2.1869 7.4485 -16.4133 33.1476 -0.0000 26.2537 -0.7953 -5.4820 -14.2758 -79.4761 -24.7584 17.7235 99.2900 0.0000 87.9870 -2.2132 -11.4346 -11.0307 32.8623 0.0000 -24.3270 -4.3343 17.8020 6.3300 8.1244 -0.0000 0.0000 -13.4298 18.2734 -20.5208 12.4713 -0.0000 0.0000 -8.0722 -4.0127 -2.6476 10.5345 -0.0000 0.0000 -11.2668 -11.1337 15.9579 8.5394 0.0000 -0.0000
